<svg width="516" height="96" viewBox="0 0 516 96" fill="none" xmlns="http://www.w3.org/2000/svg">
<path d="M0 0H114.576C139.679 0 160.028 20.3494 160.028 45.4517V96H45.4518C20.3495 96 0 75.6506 0 50.5483V0Z" fill="#009245"/>
<path d="M87.9296 51.423C87.7388 51.1013 87.5847 50.7591 87.4701 50.403C86.7718 43.6584 86.7993 43.6217 92.4229 43.6217C106.206 43.6217 120.054 43.6676 133.874 43.5574C136.364 43.5574 137.411 44.2006 137.292 47.4442C137.071 53.4537 137.173 62.9642 137.292 68.9829C137.292 71.179 136.704 71.9325 134.866 71.9233C119.815 71.859 104.773 71.813 89.7214 71.9233C86.9096 71.9233 87.4058 69.911 87.3507 67.9446C87.2955 65.9781 87.2404 64.3333 89.749 64.3609C102.145 64.4895 114.559 64.3609 126.936 64.4987C129.766 64.5447 131.044 63.6717 130.612 60.2351C130.525 59.5702 130.525 58.8968 130.612 58.2319C130.961 55.4753 129.886 51.3679 127.708 51.3863C115.597 51.4873 103.486 51.4414 91.3754 51.4414L87.9296 51.423Z" fill="white"/>
<path d="M136.943 24.0771C137.059 24.6479 137.145 25.2246 137.2 25.8046C137.2 27.4678 137.2 29.131 137.2 31.1893C136.288 31.3403 135.367 31.4415 134.444 31.4925C119.741 31.4925 105.113 31.4925 90.4474 31.4925C88.6097 31.4925 87.1119 31.6303 87.3049 28.451C87.4611 25.8138 87.2589 23.9209 90.475 23.976C105.113 24.1874 119.521 24.0771 134.177 24.0771H136.943Z" fill="white"/>
<path d="M30.4992 73.2741H23.8465C23.8465 73.2741 23.8465 37.2906 23.6719 26.8245C23.6719 23.9392 24.1589 22.6987 26.9339 22.7263C44.3376 22.8733 61.7443 22.8733 79.1541 22.7263C82.0026 22.7263 82.8296 23.6452 82.8296 27.0542C82.6275 38.4025 83.0685 73.2649 83.0685 73.2649H76.4158C76.4158 73.2649 76.4158 42.8039 76.5353 33.8907C76.5353 31.1341 75.8185 30.2152 73.4294 30.2152C60.1914 30.3071 46.9472 30.3071 33.6969 30.2152C31.1516 30.2152 30.5084 31.2351 30.5451 34.1204C30.6186 46.5254 30.4992 59.9686 30.4992 73.2741Z" fill="white"/>
<path d="M50.4758 72.4013L50.1175 31.511C50.0578 30.658 50.3306 29.8152 50.8788 29.1591C51.427 28.5029 52.208 28.0846 53.0579 27.9916C55.0151 27.9916 56.5772 27.7711 56.5864 29.9948C56.5864 34.5892 56.3934 72.4013 56.3934 72.4013H50.4758Z" fill="white"/>
<path d="M471.122 43.7356C473.225 43.7356 475.101 44.1723 476.751 45.0457C478.433 45.9191 479.743 47.2131 480.681 48.9276C481.619 50.642 482.088 52.7124 482.088 55.1385V70.9085H476.605V55.9634C476.605 53.5696 476.007 51.7419 474.81 50.4803C473.613 49.1863 471.979 48.5394 469.909 48.5394C467.839 48.5394 466.189 49.1863 464.96 50.4803C463.763 51.7419 463.164 53.5696 463.164 55.9634V70.9085H457.633V44.1723H463.164V47.2293C464.07 46.1294 465.219 45.2722 466.61 44.6575C468.033 44.0429 469.537 43.7356 471.122 43.7356Z" fill="white"/>
<path d="M499.916 43.7356C501.987 43.7356 503.814 44.1561 505.4 44.9972C507.017 45.8059 508.279 46.8249 509.184 48.0541V44.1723H514.764V71.3452C514.764 73.8037 514.247 75.9872 513.212 77.8958C512.177 79.8367 510.672 81.3571 508.699 82.457C506.758 83.5568 504.429 84.1067 501.712 84.1067C498.089 84.1067 495.08 83.2495 492.687 81.535C490.293 79.8529 488.934 77.5561 488.611 74.6448H494.094C494.514 76.0358 495.404 77.1518 496.762 77.9928C498.153 78.8663 499.803 79.303 501.712 79.303C503.944 79.303 505.739 78.6236 507.098 77.265C508.489 75.9064 509.184 73.9331 509.184 71.3452V66.8811C508.246 68.1427 506.968 69.2102 505.351 70.0836C503.766 70.9247 501.954 71.3452 499.916 71.3452C497.587 71.3452 495.452 70.7629 493.511 69.5984C491.603 68.4015 490.082 66.7517 488.95 64.649C487.85 62.514 487.3 60.104 487.3 57.4191C487.3 54.7341 487.85 52.3565 488.95 50.2862C490.082 48.2159 491.603 46.6146 493.511 45.4824C495.452 44.3179 497.587 43.7356 499.916 43.7356ZM509.184 57.5161C509.184 55.6723 508.796 54.071 508.02 52.7124C507.276 51.3537 506.289 50.3186 505.06 49.6069C503.831 48.8952 502.504 48.5394 501.081 48.5394C499.658 48.5394 498.331 48.8952 497.102 49.6069C495.873 50.2862 494.87 51.3052 494.094 52.6638C493.35 53.9901 492.978 55.5752 492.978 57.4191C492.978 59.263 493.35 60.8804 494.094 62.2714C494.87 63.6624 495.873 64.7299 497.102 65.4739C498.364 66.1856 499.69 66.5414 501.081 66.5414C502.504 66.5414 503.831 66.1856 505.06 65.4739C506.289 64.7622 507.276 63.7271 508.02 62.3684C508.796 60.9774 509.184 59.36 509.184 57.5161Z" fill="white"/>
<path d="M296.075 71.3722C292.984 71.3722 290.201 70.8422 287.728 69.7821C285.254 68.6779 283.311 67.132 281.897 65.1444C280.484 63.1569 279.777 60.838 279.777 58.1879H287.86C288.037 60.1755 288.81 61.8097 290.179 63.0906C291.592 64.3715 293.558 65.0119 296.075 65.0119C298.681 65.0119 300.713 64.3936 302.171 63.1569C303.628 61.876 304.357 60.2418 304.357 58.2542C304.357 56.7083 303.893 55.4495 302.966 54.4778C302.082 53.5061 300.956 52.7552 299.587 52.2252C298.262 51.6952 296.407 51.121 294.022 50.5026C291.018 49.7076 288.567 48.9126 286.668 48.1175C284.813 47.2783 283.222 45.9975 281.897 44.2749C280.572 42.5523 279.91 40.2556 279.91 37.3846C279.91 34.7345 280.572 32.4157 281.897 30.4281C283.222 28.4405 285.078 26.9167 287.463 25.8567C289.848 24.7966 292.608 24.2666 295.744 24.2666C300.205 24.2666 303.849 25.3929 306.676 27.6455C309.547 29.8539 311.137 32.9015 311.446 36.7883H303.098C302.966 35.1099 302.171 33.6745 300.713 32.4819C299.256 31.2894 297.334 30.6931 294.949 30.6931C292.785 30.6931 291.018 31.2452 289.649 32.3494C288.28 33.4536 287.595 35.0437 287.595 37.1196C287.595 38.533 288.015 39.7035 288.854 40.631C289.737 41.5144 290.842 42.2211 292.167 42.7511C293.492 43.2811 295.303 43.8553 297.599 44.4736C300.647 45.3128 303.12 46.152 305.02 46.9912C306.963 47.8304 308.597 49.1334 309.922 50.9001C311.291 52.6227 311.976 54.9415 311.976 57.8567C311.976 60.1976 311.336 62.406 310.055 64.4819C308.818 66.5578 306.985 68.2362 304.556 69.5171C302.171 70.7538 299.344 71.3722 296.075 71.3722Z" fill="#009245"/>
<path d="M328.441 39.7697C329.722 38.0913 331.466 36.6779 333.675 35.5295C335.883 34.3812 338.379 33.807 341.161 33.807C344.342 33.807 347.235 34.602 349.84 36.1921C352.491 37.738 354.567 39.9243 356.068 42.7511C357.57 45.5779 358.321 48.8242 358.321 52.4902C358.321 56.1562 357.57 59.4467 356.068 62.3618C354.567 65.2328 352.491 67.4854 349.84 69.1196C347.235 70.7097 344.342 71.5047 341.161 71.5047C338.379 71.5047 335.905 70.9526 333.741 69.8484C331.577 68.7 329.81 67.2866 328.441 65.6082V88.2666H320.888V34.4033H328.441V39.7697ZM350.636 52.4902C350.636 49.9726 350.105 47.8084 349.045 45.9974C348.03 44.1424 346.66 42.7511 344.938 41.8235C343.259 40.8518 341.448 40.366 339.505 40.366C337.606 40.366 335.795 40.8518 334.072 41.8235C332.394 42.7952 331.025 44.2086 329.965 46.0637C328.949 47.9188 328.441 50.1051 328.441 52.6227C328.441 55.1403 328.949 57.3487 329.965 59.248C331.025 61.103 332.394 62.5164 334.072 63.4881C335.795 64.4598 337.606 64.9457 339.505 64.9457C341.448 64.9457 343.259 64.4598 344.938 63.4881C346.66 62.4723 348.03 61.0147 349.045 59.1155C350.105 57.2162 350.636 55.0078 350.636 52.4902Z" fill="#009245"/>
<path d="M381.624 71.5047C378.179 71.5047 375.065 70.7318 372.283 69.1859C369.5 67.5958 367.314 65.3874 365.724 62.5606C364.133 59.6897 363.338 56.377 363.338 52.6227C363.338 48.9126 364.156 45.622 365.79 42.7511C367.424 39.8801 369.654 37.6717 372.481 36.1258C375.308 34.5799 378.466 33.807 381.955 33.807C385.445 33.807 388.603 34.5799 391.43 36.1258C394.256 37.6717 396.487 39.8801 398.121 42.7511C399.755 45.622 400.572 48.9126 400.572 52.6227C400.572 56.3329 399.733 59.6234 398.055 62.4943C396.376 65.3653 394.08 67.5958 391.165 69.1859C388.294 70.7318 385.113 71.5047 381.624 71.5047ZM381.624 64.9457C383.568 64.9457 385.378 64.4819 387.057 63.5544C388.779 62.6269 390.171 61.2355 391.231 59.3805C392.291 57.5254 392.821 55.2728 392.821 52.6227C392.821 49.9726 392.313 47.7421 391.297 45.9312C390.281 44.0761 388.934 42.6848 387.256 41.7573C385.577 40.8297 383.766 40.366 381.823 40.366C379.879 40.366 378.069 40.8297 376.39 41.7573C374.756 42.6848 373.453 44.0761 372.481 45.9312C371.51 47.7421 371.024 49.9726 371.024 52.6227C371.024 56.5537 372.018 59.6013 374.005 61.7656C376.037 63.8857 378.576 64.9457 381.624 64.9457Z" fill="#009245"/>
<path d="M415.592 39.7035C416.696 37.8484 418.153 36.4129 419.964 35.397C421.819 34.337 424.006 33.807 426.523 33.807V41.6248H424.602C421.643 41.6248 419.39 42.3756 417.844 43.8774C416.342 45.3791 415.592 47.985 415.592 51.6952V70.9084H408.039V34.4033H415.592V39.7035Z" fill="#009245"/>
<path d="M442.277 40.5647V60.7718C442.277 62.141 442.587 63.1348 443.205 63.7531C443.867 64.3273 444.972 64.6144 446.518 64.6144H451.155V70.9084H445.192C441.791 70.9084 439.186 70.1134 437.375 68.5233C435.564 66.9333 434.658 64.3494 434.658 60.7718V40.5647H430.352V34.4033H434.658V25.3266H442.277V34.4033H451.155V40.5647H442.277Z" fill="#009245"/>
<path d="M231.251 24.863V70.9086H223.698V39.3724L209.652 70.9086H204.419L190.307 39.3724V70.9086H182.754V24.863H190.903L207.069 60.9707L223.168 24.863H231.251Z" fill="white"/>
<path d="M238.66 52.6229C238.66 48.8686 239.411 45.578 240.913 42.7512C242.459 39.8803 244.579 37.6719 247.273 36.126C249.967 34.5801 253.059 33.8071 256.548 33.8071C260.965 33.8071 264.609 34.8672 267.48 36.9873C270.395 39.0632 272.361 42.0445 273.377 45.9314H265.228C264.565 44.1205 263.505 42.7071 262.047 41.6912C260.59 40.6753 258.757 40.1674 256.548 40.1674C253.457 40.1674 250.983 41.2716 249.128 43.48C247.317 45.6443 246.412 48.6919 246.412 52.6229C246.412 56.5539 247.317 59.6236 249.128 61.832C250.983 64.0404 253.457 65.1446 256.548 65.1446C260.921 65.1446 263.814 63.2233 265.228 59.3806H273.377C272.317 63.0908 270.329 66.0501 267.414 68.2585C264.499 70.4227 260.877 71.5049 256.548 71.5049C253.059 71.5049 249.967 70.7319 247.273 69.186C244.579 67.596 242.459 65.3875 240.913 62.5608C239.411 59.6898 238.66 56.3772 238.66 52.6229Z" fill="white"/>
</svg>
