<svg width="516" height="96" viewBox="0 0 516 96" fill="none" xmlns="http://www.w3.org/2000/svg">
<path d="M0 0H114.576C139.679 0 160.028 20.3494 160.028 45.4517V96H45.4518C20.3495 96 0 75.6506 0 50.5483V0Z" fill="#009245"/>
<path d="M87.9296 51.4229C87.7388 51.1011 87.5847 50.759 87.4701 50.4029C86.7718 43.6583 86.7993 43.6216 92.4229 43.6216C106.206 43.6216 120.054 43.6675 133.874 43.5573C136.364 43.5573 137.411 44.2005 137.292 47.4441C137.071 53.4536 137.173 62.9641 137.292 68.9827C137.292 71.1789 136.704 71.9324 134.866 71.9232C119.815 71.8589 104.773 71.8129 89.7214 71.9232C86.9096 71.9232 87.4058 69.9108 87.3507 67.9444C87.2955 65.978 87.2404 64.3332 89.749 64.3608C102.145 64.4894 114.559 64.3608 126.936 64.4986C129.766 64.5446 131.044 63.6716 130.612 60.235C130.525 59.5701 130.525 58.8967 130.612 58.2318C130.961 55.4752 129.886 51.3678 127.708 51.3861C115.597 51.4872 103.486 51.4413 91.3754 51.4413L87.9296 51.4229Z" fill="white"/>
<path d="M136.943 24.0771C137.059 24.6479 137.145 25.2246 137.2 25.8046C137.2 27.4678 137.2 29.131 137.2 31.1893C136.288 31.3403 135.367 31.4415 134.444 31.4925C119.741 31.4925 105.113 31.4925 90.4474 31.4925C88.6097 31.4925 87.1119 31.6303 87.3049 28.451C87.4611 25.8138 87.2589 23.9209 90.475 23.976C105.113 24.1874 119.521 24.0771 134.177 24.0771H136.943Z" fill="white"/>
<path d="M30.4992 73.2741H23.8465C23.8465 73.2741 23.8465 37.2906 23.6719 26.8245C23.6719 23.9392 24.1589 22.6987 26.9339 22.7263C44.3376 22.8733 61.7443 22.8733 79.1541 22.7263C82.0026 22.7263 82.8296 23.6452 82.8296 27.0542C82.6275 38.4025 83.0685 73.2649 83.0685 73.2649H76.4158C76.4158 73.2649 76.4158 42.8039 76.5353 33.8907C76.5353 31.1341 75.8185 30.2152 73.4294 30.2152C60.1914 30.3071 46.9472 30.3071 33.6969 30.2152C31.1516 30.2152 30.5084 31.2351 30.5451 34.1204C30.6186 46.5254 30.4992 59.9686 30.4992 73.2741Z" fill="white"/>
<path d="M50.4758 72.4012L50.1175 31.5108C50.0578 30.6579 50.3306 29.8151 50.8788 29.1589C51.427 28.5028 52.208 28.0844 53.0579 27.9915C55.0151 27.9915 56.5772 27.771 56.5864 29.9947C56.5864 34.5891 56.3934 72.4012 56.3934 72.4012H50.4758Z" fill="white"/>
<path d="M471.122 43.7356C473.225 43.7356 475.101 44.1723 476.751 45.0457C478.433 45.9191 479.743 47.2131 480.681 48.9276C481.619 50.642 482.088 52.7124 482.088 55.1385V70.9085H476.605V55.9634C476.605 53.5696 476.007 51.7419 474.81 50.4803C473.613 49.1863 471.979 48.5394 469.909 48.5394C467.839 48.5394 466.189 49.1863 464.96 50.4803C463.763 51.7419 463.164 53.5696 463.164 55.9634V70.9085H457.633V44.1723H463.164V47.2293C464.07 46.1294 465.219 45.2722 466.61 44.6575C468.033 44.0429 469.537 43.7356 471.122 43.7356Z" fill="black"/>
<path d="M499.916 43.7356C501.987 43.7356 503.814 44.1561 505.4 44.9972C507.017 45.8059 508.279 46.8249 509.184 48.0541V44.1723H514.764V71.3452C514.764 73.8037 514.247 75.9872 513.212 77.8958C512.177 79.8367 510.672 81.3571 508.699 82.457C506.758 83.5568 504.429 84.1067 501.712 84.1067C498.089 84.1067 495.08 83.2495 492.687 81.535C490.293 79.8529 488.934 77.5561 488.611 74.6448H494.094C494.514 76.0358 495.404 77.1518 496.762 77.9928C498.153 78.8663 499.803 79.303 501.712 79.303C503.944 79.303 505.739 78.6236 507.098 77.265C508.489 75.9064 509.184 73.9331 509.184 71.3452V66.8811C508.246 68.1427 506.968 69.2102 505.351 70.0836C503.766 70.9247 501.954 71.3452 499.916 71.3452C497.587 71.3452 495.452 70.7629 493.511 69.5984C491.603 68.4015 490.082 66.7517 488.95 64.649C487.85 62.514 487.3 60.104 487.3 57.4191C487.3 54.7341 487.85 52.3565 488.95 50.2862C490.082 48.2159 491.603 46.6146 493.511 45.4824C495.452 44.3179 497.587 43.7356 499.916 43.7356ZM509.184 57.5161C509.184 55.6723 508.796 54.071 508.02 52.7124C507.276 51.3537 506.289 50.3186 505.06 49.6069C503.831 48.8952 502.504 48.5394 501.081 48.5394C499.658 48.5394 498.331 48.8952 497.102 49.6069C495.873 50.2862 494.87 51.3052 494.094 52.6638C493.35 53.9901 492.978 55.5752 492.978 57.4191C492.978 59.263 493.35 60.8804 494.094 62.2714C494.87 63.6624 495.873 64.7299 497.102 65.4739C498.364 66.1856 499.69 66.5414 501.081 66.5414C502.504 66.5414 503.831 66.1856 505.06 65.4739C506.289 64.7622 507.276 63.7271 508.02 62.3684C508.796 60.9774 509.184 59.36 509.184 57.5161Z" fill="black"/>
<path d="M296.075 71.3723C292.984 71.3723 290.201 70.8423 287.728 69.7823C285.254 68.678 283.311 67.1321 281.897 65.1446C280.484 63.157 279.777 60.8382 279.777 58.188H287.86C288.037 60.1756 288.81 61.8099 290.179 63.0907C291.592 64.3716 293.558 65.0121 296.075 65.0121C298.681 65.0121 300.713 64.3937 302.171 63.157C303.628 61.8761 304.357 60.2419 304.357 58.2543C304.357 56.7084 303.893 55.4496 302.966 54.4779C302.082 53.5062 300.956 52.7553 299.587 52.2253C298.262 51.6953 296.407 51.1211 294.022 50.5027C291.018 49.7077 288.567 48.9127 286.668 48.1177C284.813 47.2785 283.222 45.9976 281.897 44.275C280.572 42.5524 279.91 40.2557 279.91 37.3847C279.91 34.7346 280.572 32.4158 281.897 30.4282C283.222 28.4406 285.078 26.9168 287.463 25.8568C289.848 24.7967 292.608 24.2667 295.744 24.2667C300.205 24.2667 303.849 25.393 306.676 27.6456C309.547 29.854 311.137 32.9016 311.446 36.7885H303.098C302.966 35.1101 302.171 33.6746 300.713 32.482C299.256 31.2895 297.334 30.6932 294.949 30.6932C292.785 30.6932 291.018 31.2453 289.649 32.3495C288.28 33.4537 287.595 35.0438 287.595 37.1197C287.595 38.5331 288.015 39.7036 288.854 40.6311C289.737 41.5145 290.842 42.2212 292.167 42.7512C293.492 43.2812 295.303 43.8554 297.599 44.4738C300.647 45.313 303.12 46.1522 305.02 46.9914C306.963 47.8306 308.597 49.1335 309.922 50.9003C311.291 52.6228 311.976 54.9417 311.976 57.8568C311.976 60.1977 311.336 62.4061 310.055 64.482C308.818 66.558 306.985 68.2364 304.556 69.5172C302.171 70.754 299.344 71.3723 296.075 71.3723Z" fill="#009245"/>
<path d="M328.441 39.7698C329.722 38.0914 331.466 36.678 333.675 35.5297C335.883 34.3813 338.379 33.8071 341.161 33.8071C344.342 33.8071 347.235 34.6021 349.84 36.1922C352.491 37.7381 354.567 39.9244 356.068 42.7512C357.57 45.578 358.321 48.8244 358.321 52.4903C358.321 56.1563 357.57 59.4468 356.068 62.362C354.567 65.2329 352.491 67.4855 349.84 69.1197C347.235 70.7098 344.342 71.5048 341.161 71.5048C338.379 71.5048 335.905 70.9527 333.741 69.8485C331.577 68.7001 329.81 67.2867 328.441 65.6083V88.2667H320.888V34.4034H328.441V39.7698ZM350.636 52.4903C350.636 49.9727 350.105 47.8085 349.045 45.9976C348.03 44.1425 346.66 42.7512 344.938 41.8237C343.259 40.852 341.448 40.3661 339.505 40.3661C337.606 40.3661 335.795 40.852 334.072 41.8237C332.394 42.7954 331.025 44.2088 329.965 46.0638C328.949 47.9189 328.441 50.1052 328.441 52.6228C328.441 55.1404 328.949 57.3489 329.965 59.2481C331.025 61.1032 332.394 62.5166 334.072 63.4883C335.795 64.46 337.606 64.9458 339.505 64.9458C341.448 64.9458 343.259 64.46 344.938 63.4883C346.66 62.4724 348.03 61.0148 349.045 59.1156C350.105 57.2163 350.636 55.0079 350.636 52.4903Z" fill="#009245"/>
<path d="M381.624 71.5048C378.179 71.5048 375.065 70.7319 372.283 69.186C369.5 67.5959 367.314 65.3875 365.724 62.5607C364.133 59.6898 363.338 56.3771 363.338 52.6228C363.338 48.9127 364.156 45.6221 365.79 42.7512C367.424 39.8803 369.654 37.6718 372.481 36.1259C375.308 34.58 378.466 33.8071 381.955 33.8071C385.445 33.8071 388.603 34.58 391.43 36.1259C394.256 37.6718 396.487 39.8803 398.121 42.7512C399.755 45.6221 400.572 48.9127 400.572 52.6228C400.572 56.333 399.733 59.6235 398.055 62.4945C396.376 65.3654 394.08 67.5959 391.165 69.186C388.294 70.7319 385.113 71.5048 381.624 71.5048ZM381.624 64.9458C383.568 64.9458 385.378 64.482 387.057 63.5545C388.779 62.627 390.171 61.2357 391.231 59.3806C392.291 57.5255 392.821 55.2729 392.821 52.6228C392.821 49.9727 392.313 47.7422 391.297 45.9313C390.281 44.0762 388.934 42.6849 387.256 41.7574C385.577 40.8299 383.766 40.3661 381.823 40.3661C379.879 40.3661 378.069 40.8299 376.39 41.7574C374.756 42.6849 373.453 44.0762 372.481 45.9313C371.51 47.7422 371.024 49.9727 371.024 52.6228C371.024 56.5538 372.018 59.6014 374.005 61.7657C376.037 63.8858 378.576 64.9458 381.624 64.9458Z" fill="#009245"/>
<path d="M415.592 39.7036C416.696 37.8485 418.153 36.413 419.964 35.3972C421.819 34.3371 424.006 33.8071 426.523 33.8071V41.6249H424.602C421.643 41.6249 419.39 42.3758 417.844 43.8775C416.342 45.3792 415.592 47.9852 415.592 51.6953V70.9085H408.039V34.4034H415.592V39.7036Z" fill="#009245"/>
<path d="M442.277 40.5649V60.7719C442.277 62.1411 442.587 63.1349 443.205 63.7533C443.867 64.3275 444.972 64.6145 446.518 64.6145H451.155V70.9085H445.192C441.791 70.9085 439.186 70.1135 437.375 68.5235C435.564 66.9334 434.658 64.3495 434.658 60.7719V40.5649H430.352V34.4034H434.658V25.3268H442.277V34.4034H451.155V40.5649H442.277Z" fill="#009245"/>
<path d="M231.251 24.863V70.9086H223.698V39.3724L209.652 70.9086H204.419L190.307 39.3724V70.9086H182.754V24.863H190.903L207.069 60.9707L223.168 24.863H231.251Z" fill="black"/>
<path d="M238.66 52.6229C238.66 48.8686 239.411 45.578 240.913 42.7512C242.459 39.8803 244.579 37.6719 247.273 36.126C249.967 34.5801 253.059 33.8071 256.548 33.8071C260.965 33.8071 264.609 34.8672 267.48 36.9873C270.395 39.0632 272.361 42.0445 273.377 45.9314H265.228C264.565 44.1205 263.505 42.7071 262.047 41.6912C260.59 40.6753 258.757 40.1674 256.548 40.1674C253.457 40.1674 250.983 41.2716 249.128 43.48C247.317 45.6443 246.412 48.6919 246.412 52.6229C246.412 56.5539 247.317 59.6236 249.128 61.832C250.983 64.0404 253.457 65.1446 256.548 65.1446C260.921 65.1446 263.814 63.2233 265.228 59.3806H273.377C272.317 63.0908 270.329 66.0501 267.414 68.2585C264.499 70.4227 260.877 71.5049 256.548 71.5049C253.059 71.5049 249.967 70.7319 247.273 69.186C244.579 67.596 242.459 65.3875 240.913 62.5608C239.411 59.6898 238.66 56.3772 238.66 52.6229Z" fill="black"/>
</svg>
